<svg width="35" height="28" viewBox="0 0 35 28" fill="none" xmlns="http://www.w3.org/2000/svg">
<path d="M4.9026 5.95127C4.94503 5.52888 4.78518 5.11139 4.47219 4.82711L1.28393 0.9568V0.378662H11.1835L18.8353 17.2892L25.5625 0.378662H34.9998V0.9568L32.2738 3.59054C32.0388 3.77105 31.9222 4.06774 31.9709 4.36139V23.7129C31.9222 24.0066 32.0388 24.3033 32.2738 24.4838L34.936 27.1175V27.6957H21.5453V27.1175L24.3032 24.4195C24.5742 24.1465 24.5742 24.0662 24.5742 23.6487V8.00687L16.9064 27.6314H15.8702L6.94309 8.00687V21.1595C6.86866 21.7125 7.05091 22.2692 7.43727 22.6691L11.0241 27.0533V27.6314H0.853516V27.0533L4.44031 22.6691C4.82385 22.2685 4.99548 21.7081 4.9026 21.1595V5.95127Z" fill="white"/>
</svg>
